<svg xmlns="http://www.w3.org/2000/svg" viewBox="0 0 150 150"><path style="stroke:none;fill-rule:nonzero;fill:#1c414d;fill-opacity:1" d="M101.457 70.21c0 1.372-.113 2.759-.266 4.13H51.582c1.566 9.93 8.707 16.035 18.711 16.035 7.309 0 13.219-3.39 16.45-8.977h13.23c-4.864 12.938-16.028 20.782-29.68 20.782-17.871.015-31.414-13.82-31.414-32.125 0-18.301 13.512-32.125 31.414-32.125s31.176 14.437 31.176 32.28Zm-31.18-20.894c-9.457 0-16.336 5.715-18.402 14.801h36.977c-2.25-9.312-9.25-14.8-18.575-14.8ZM123.535 111.55H38.88v12.59h84.656Zm0 0"/></svg>