<?xml version="1.0" encoding="UTF-8" standalone="no" ?>
<!DOCTYPE svg PUBLIC "-//W3C//DTD SVG 1.1//EN" "http://www.w3.org/Graphics/SVG/1.1/DTD/svg11.dtd">
<svg xmlns="http://www.w3.org/2000/svg" xmlns:xlink="http://www.w3.org/1999/xlink" version="1.1" width="1080" height="1080" viewBox="0 0 1080 1080" xml:space="preserve">
<desc>Created with Fabric.js 5.2.4</desc>
<defs>
</defs>
<g transform="matrix(1 0 0 1 540 540)" id="039bd827-6f01-408c-9f45-63048d24b4cd"  >
<rect style="stroke: none; stroke-width: 1; stroke-dasharray: none; stroke-linecap: butt; stroke-dashoffset: 0; stroke-linejoin: miter; stroke-miterlimit: 4; fill: rgb(255,255,255); fill-rule: nonzero; opacity: 1; visibility: hidden;" vector-effect="non-scaling-stroke"  x="-540" y="-540" rx="0" ry="0" width="1080" height="1080" />
</g>
<g transform="matrix(1 0 0 1 540 540)" id="8e3bbc63-90ab-44ed-a3d6-6cdf70439f4a"  >
</g>
<g transform="matrix(12.34 0 0 12.34 552.84 541.82)" id="27c0419c-5f87-459f-a951-43e6ef16adee"  >
<path style="stroke: rgb(0,0,0); stroke-width: 0; stroke-dasharray: none; stroke-linecap: butt; stroke-dashoffset: 0; stroke-linejoin: miter; stroke-miterlimit: 4; fill: rgb(28,65,77); fill-rule: nonzero; opacity: 1;" vector-effect="non-scaling-stroke"  transform=" translate(-81.21, -81.03)" d="M 101.457 70.21 C 101.457 71.582 101.344 72.969 101.19099999999999 74.33999999999999 L 51.582 74.33999999999999 C 53.148 84.26999999999998 60.289 90.37499999999999 70.293 90.37499999999999 C 77.602 90.37499999999999 83.512 86.98499999999999 86.74300000000001 81.39799999999998 L 99.97300000000001 81.39799999999998 C 95.10900000000001 94.33599999999998 83.94500000000002 102.17999999999998 70.293 102.17999999999998 C 52.42200000000001 102.19499999999998 38.879000000000005 88.35999999999999 38.879000000000005 70.05499999999998 C 38.879000000000005 51.75399999999998 52.391000000000005 37.92999999999998 70.293 37.92999999999998 C 88.19500000000001 37.92999999999998 101.46900000000001 52.366999999999976 101.46900000000001 70.20999999999998 Z M 70.27699999999999 49.315999999999995 C 60.819999999999986 49.315999999999995 53.94099999999999 55.03099999999999 51.874999999999986 64.11699999999999 L 88.85199999999998 64.11699999999999 C 86.60199999999998 54.80499999999999 79.60199999999998 49.31699999999999 70.27699999999997 49.31699999999999 Z M 123.535 111.55 L 38.88 111.55 L 38.88 124.14 L 123.536 124.14 Z M 123.535 111.55" stroke-linecap="round" />
</g>
</svg>